<?xml version="1.0" encoding="UTF-8"?>
<!DOCTYPE svg PUBLIC "-//W3C//DTD SVG 1.1//EN" "http://www.w3.org/Graphics/SVG/1.1/DTD/svg11.dtd">
<svg xmlns="http://www.w3.org/2000/svg" version="1.1" width="180px" height="50px" style="shape-rendering:geometricPrecision; text-rendering:geometricPrecision; image-rendering:optimizeQuality; fill-rule:evenodd; clip-rule:evenodd" xmlns:xlink="http://www.w3.org/1999/xlink">
<g><path style="opacity:0.743" fill="#fefffe" d="M 43.5,4.5 C 44.6604,17.6603 44.827,30.9936 44,44.5C 43.5001,31.1708 43.3334,17.8375 43.5,4.5 Z"/></g>
<g><path style="opacity:0.954" fill="#e3e3e3" d="M 63.5,13.5 C 66.5184,13.3354 69.5184,13.502 72.5,14C 73.3333,14.8333 74.1667,15.6667 75,16.5C 76.3696,22.7416 76.8696,29.0749 76.5,35.5C 74.549,35.7733 73.049,35.1066 72,33.5C 67.5495,37.2177 63.2162,37.2177 59,33.5C 57.877,30.0437 58.7104,27.2103 61.5,25C 64.7256,23.8011 68.059,23.3011 71.5,23.5C 71.8957,20.9556 71.229,18.7889 69.5,17C 66.6947,16.5585 64.0281,17.0585 61.5,18.5C 60.8333,18.1667 60.1667,17.8333 59.5,17.5C 60.5487,15.7844 61.882,14.4511 63.5,13.5 Z M 69.5,25.5 C 72.0412,27.4401 72.0412,29.6068 69.5,32C 67.5,32.6667 65.5,32.6667 63.5,32C 62.4829,30.9505 62.3162,29.7839 63,28.5C 65.166,27.2685 67.3326,26.2685 69.5,25.5 Z"/></g>
<g><path style="opacity:0.957" fill="#fdfdfd" d="M 81.5,13.5 C 82.8333,13.5 84.1667,13.5 85.5,13.5C 85.443,17.1331 86.443,17.2998 88.5,14C 90.4727,13.5045 92.4727,13.3379 94.5,13.5C 94.5,14.8333 94.5,16.1667 94.5,17.5C 91.6354,17.0548 89.1354,17.7215 87,19.5C 85.6033,24.7081 85.1033,30.0414 85.5,35.5C 84.1667,35.5 82.8333,35.5 81.5,35.5C 81.5,28.1667 81.5,20.8333 81.5,13.5 Z"/></g>
<g><path style="opacity:0.982" fill="#e7e7e7" d="M 100.5,13.5 C 103.85,13.335 107.183,13.5017 110.5,14C 113.965,14.9336 114.298,16.4336 111.5,18.5C 104.273,14.6143 100.273,16.781 99.5,25C 100.86,32.5095 104.86,34.3428 111.5,30.5C 113.488,31.2888 113.821,32.4555 112.5,34C 106.543,37.7158 101.377,36.8824 97,31.5C 94.1798,24.6279 95.3465,18.6279 100.5,13.5 Z"/></g>
<g><path style="opacity:0.962" fill="#e7e7e7" d="M 125.5,12.5 C 136.686,15.1567 139.853,21.8234 135,32.5C 129.333,37.8333 123.667,37.8333 118,32.5C 114.754,27.1967 114.754,21.8634 118,16.5C 120.255,14.5012 122.755,13.1679 125.5,12.5 Z M 123.5,16.5 C 131.421,16.635 134.255,20.635 132,28.5C 128.829,33.4141 125.163,33.7475 121,29.5C 119.743,24.6169 120.576,20.2835 123.5,16.5 Z"/></g>
<g><path style="opacity:0.958" fill="#f0f0f0" d="M 138.5,13.5 C 140.144,13.2865 141.644,13.6198 143,14.5C 145.196,19.4203 147.196,24.4203 149,29.5C 151.149,24.5304 153.316,19.5304 155.5,14.5C 157.074,13.3691 158.741,13.2025 160.5,14C 157.212,20.6918 154.212,27.5252 151.5,34.5C 149.955,35.4519 148.288,35.7852 146.5,35.5C 144.034,28.1019 141.367,20.7686 138.5,13.5 Z"/></g>
<g><path style="opacity:0.965" fill="#e9e9e9" d="M 169.5,12.5 C 172.939,12.5887 175.772,13.9221 178,16.5C 178.5,22.8246 178.666,29.1579 178.5,35.5C 176.857,35.5198 175.524,34.8532 174.5,33.5C 170.254,37.284 166.088,37.284 162,33.5C 161.105,30.5337 161.605,27.8671 163.5,25.5C 166.991,23.8682 170.658,22.8682 174.5,22.5C 174.822,20.2776 174.155,18.4443 172.5,17C 169.015,16.6737 165.682,17.1737 162.5,18.5C 163.599,15.0683 165.932,13.0683 169.5,12.5 Z M 172.5,25.5 C 175.041,27.4401 175.041,29.6068 172.5,32C 170.5,32.6667 168.5,32.6667 166.5,32C 165.483,30.9505 165.316,29.7839 166,28.5C 168.045,27.0735 170.212,26.0735 172.5,25.5 Z"/></g>
<g><path style="opacity:0.906" fill="#e5e5e5" d="M 14.5,13.5 C 27.1992,12.2509 32.6992,17.9176 31,30.5C 25.6754,39.1153 18.842,40.6153 10.5,35C 7.16667,34.6667 3.83333,34.3333 0.5,34C 27.1418,33.4981 27.1418,32.6648 0.5,31.5C 4.44539,30.5091 8.44539,30.1758 12.5,30.5C 12.7394,28.5328 12.4061,26.6995 11.5,25C 7.78902,24.8253 4.12236,24.3253 0.5,23.5C 2.74269,22.5258 5.07603,22.1924 7.5,22.5C 8.33571,18.3314 10.669,15.3314 14.5,13.5 Z M 11.5,22.5 C 14.3661,19.8958 17.6995,18.7292 21.5,19C 26.6272,21.8121 27.6272,25.6455 24.5,30.5C 24.1496,27.1384 22.8163,24.3051 20.5,22C 17.904,21.542 15.7373,22.3754 14,24.5C 13.0053,23.9341 12.172,23.2674 11.5,22.5 Z M 11.5,22.5 C 8.09327,22.8747 7.59327,21.8747 10,19.5C 14.5485,14.4198 19.7152,13.5865 25.5,17C 32.1667,23 32.1667,29 25.5,35C 21.1667,37 16.8333,37 12.5,35C 20.8011,36.825 26.1344,33.825 28.5,26C 26.6545,18.1225 21.9878,15.4559 14.5,18C 12.8588,19.129 11.8588,20.629 11.5,22.5 Z M 17.5,23.5 C 20.3213,23.3159 21.9879,24.6493 22.5,27.5C 20.6605,30.8422 18.4938,31.1755 16,28.5C 15.3872,26.5048 15.8872,24.8381 17.5,23.5 Z"/></g>
</svg>
