<svg xmlns="http://www.w3.org/2000/svg" xmlns:xlink="http://www.w3.org/1999/xlink" version="1.1" width="1000" height="1000" viewBox="0 0 1000 1000" xml:space="preserve">
<desc>Created with Fabric.js 3.5.0</desc>
<defs>
</defs>
<rect x="0" y="0" width="100%" height="100%" fill="rgba(255,255,255,0)"/>
<g transform="matrix(10.0066 0 0 10.0066 500.33 516.8816)" id="230992">
<g style="" vector-effect="non-scaling-stroke">
		<g transform="matrix(1 0 0 1 -14.488 -3.858)">
<path style="stroke: rgb(255,255,255); stroke-width: 2; stroke-dasharray: none; stroke-linecap: round; stroke-dashoffset: 0; stroke-linejoin: round; stroke-miterlimit: 10; is-custom-font: none; font-file-url: none; fill: none; fill-rule: nonzero; opacity: 1;" transform=" translate(-35.512, -58.642)" d="M 25.637 52.809 c 0 0 11.833 0 13.917 0 c 2.083 0 5.833 1.75 5.833 5.833 s -2.417 5.833 -5.167 5.833 s -14.583 0 -14.583 0" stroke-linecap="round"/>
</g>
		<g transform="matrix(1 0 0 1 2.737 -4.566)">
<circle style="stroke: rgb(255,255,255); stroke-width: 1.9146; stroke-dasharray: none; stroke-linecap: round; stroke-dashoffset: 0; stroke-linejoin: round; stroke-miterlimit: 10; is-custom-font: none; font-file-url: none; fill: none; fill-rule: nonzero; opacity: 1;" cx="0" cy="0" r="6.542"/>
</g>
		<g transform="matrix(1 0 0 1 -0.113 1.976)">
<line style="stroke: rgb(255,255,255); stroke-width: 1.9146; stroke-dasharray: none; stroke-linecap: round; stroke-dashoffset: 0; stroke-linejoin: round; stroke-miterlimit: 10; is-custom-font: none; font-file-url: none; fill: none; fill-rule: nonzero; opacity: 1;" x1="-12.5" y1="0" x2="12.5" y2="0"/>
</g>
		<g transform="matrix(1 0 0 1 -4.376 -6.2175)">
<path style="stroke: rgb(255,255,255); stroke-width: 2; stroke-dasharray: none; stroke-linecap: round; stroke-dashoffset: 0; stroke-linejoin: round; stroke-miterlimit: 10; is-custom-font: none; font-file-url: none; fill: none; fill-rule: nonzero; opacity: 1;" transform=" translate(-45.624, -56.2825)" d="M 42.575 50.211 c 2.117 -3.73 6.124 -6.246 10.719 -6.246 c 6.803 0 12.317 5.515 12.317 12.317 S 60.097 68.6 53.294 68.6 H 25.637" stroke-linecap="round"/>
</g>
		<g transform="matrix(1 0 0 1 3.858 -6.375)">
<path style="stroke: rgb(255,255,255); stroke-width: 2; stroke-dasharray: none; stroke-linecap: round; stroke-dashoffset: 0; stroke-linejoin: round; stroke-miterlimit: 10; is-custom-font: none; font-file-url: none; fill: none; fill-rule: nonzero; opacity: 1;" transform=" translate(-53.858, -56.125)" d="M 36.643 49.244 c 2.697 -6.471 9.082 -11.019 16.53 -11.019 c 9.886 0 17.9 8.014 17.9 17.9 s -8.014 17.9 -17.9 17.9 c -4.863 0 -9.274 -1.94 -12.5 -5.087" stroke-linecap="round"/>
</g>
</g>
</g>
</svg>