<?xml version="1.0"?>
<svg xmlns="http://www.w3.org/2000/svg" id="Layer_1" data-name="Layer 1" viewBox="0 0 100 100"><path d="M35.7,20.81,50,6.51,65.88,22.39a1.46,1.46,0,0,0,2.05,0,1.45,1.45,0,0,0,0-2.06L51,3.43a1.45,1.45,0,0,0-2.06,0L33.65,18.75a1.45,1.45,0,1,0,2.05,2.06Z"/><path d="M6.51,50l14.3-14.3a1.45,1.45,0,1,0-2.06-2.05L3.43,49a1.45,1.45,0,0,0,0,2.06l16.9,16.9a1.43,1.43,0,0,0,1,.43,1.46,1.46,0,0,0,1-2.48Z"/><path d="M96.57,49l-16.9-16.9a1.45,1.45,0,1,0-2.06,2L93.49,50,79.19,64.3a1.46,1.46,0,0,0,1,2.48,1.43,1.43,0,0,0,1-.43L96.57,51A1.45,1.45,0,0,0,96.57,49Z"/><path d="M64.3,79.19,50,93.49,34.12,77.61a1.45,1.45,0,0,0-2,2.06L49,96.57a1.45,1.45,0,0,0,2.06,0L66.35,81.25a1.45,1.45,0,0,0-2-2.06Z"/><path d="M50,28.73A21.27,21.27,0,1,0,71.27,50,21.29,21.29,0,0,0,50,28.73Zm0,39.64A18.37,18.37,0,1,1,68.37,50,18.39,18.39,0,0,1,50,68.37Z"/></svg>
