<svg height="512" viewBox="0 0 32 32" width="512" xmlns="http://www.w3.org/2000/svg"><g id="Layer_51" data-name="Layer 51"><path d="m13 6h-4a3 3 0 0 0 -3 3v4a1 1 0 0 0 2 0v-4a1 1 0 0 1 1-1h4a1 1 0 0 0 0-2z"/><path d="m13 24h-4a1 1 0 0 1 -1-1v-4a1 1 0 0 0 -2 0v4a3 3 0 0 0 3 3h4a1 1 0 0 0 0-2z"/><path d="m25 18a1 1 0 0 0 -1 1v4a1 1 0 0 1 -1 1h-4a1 1 0 0 0 0 2h4a3 3 0 0 0 3-3v-4a1 1 0 0 0 -1-1z"/><path d="m23 6h-4a1 1 0 0 0 0 2h4a1 1 0 0 1 1 1v4a.99.99 0 0 0 .29.71 1.114 1.114 0 0 0 .126.08.918.918 0 0 0 1.171 0 1.214 1.214 0 0 0 .123-.078 1.337 1.337 0 0 0 .078-.123.98.98 0 0 0 .212-.589v-4a3 3 0 0 0 -3-3z"/></g></svg>